<svg xmlns="http://www.w3.org/2000/svg" width="240" height="72" viewBox="0 0 240 72">
    <path fill="#FFF" fill-rule="evenodd" d="M174.687 37.7c.542 0 .806-.221.806-.64v-.023c0-.468-.282-.656-.806-.656h-.624v1.32h.624zm-1.248-1.811h1.268c.84 0 1.398.374 1.398 1.132v.016c0 .594-.34.914-.86 1.032l1.096 1.668h-.694l-1.028-1.568h-.556v1.568h-.624v-3.848zm4.468 1.936c0-1.89-1.364-3.268-3.22-3.268-1.838 0-3.218 1.394-3.218 3.288 0 1.902 1.412 3.234 3.218 3.234 1.824 0 3.22-1.366 3.22-3.254zm-6.964.02c0-2.078 1.65-3.75 3.744-3.75 2.124 0 3.746 1.656 3.746 3.73 0 2.106-1.654 3.728-3.746 3.728-2.072 0-3.744-1.602-3.744-3.708zm-16.742-13.472c-.902.578-4.912 3.5-4.912 9.176v7.788c-.012.122-.08.244-.272.25h-2.198c-.192-.006-.256-.132-.27-.256v-7.782c0-6.59 4.422-10.402 6.21-11.508.094-.05.24-.082.342.078l1.202 1.89c.05.11.068.254-.102.364zm-68.178 3.191a8.438 8.438 0 0 1 2.48 5.984l-.03 7.058a8.462 8.462 0 0 1-8.468 8.47 8.435 8.435 0 0 1-5.82-2.324c-.062-.09-.092-.208.01-.332l1.616-1.614c.12-.086.242-.042.328.024a5.7 5.7 0 0 0 3.866 1.504 5.7 5.7 0 0 0 4.05-1.676 5.706 5.706 0 0 0 1.676-4.052v-.792a8.46 8.46 0 0 1-11.68-.278 8.447 8.447 0 0 1-2.484-5.988c0-2.332.952-4.456 2.484-5.984a8.414 8.414 0 0 1 5.984-2.48 8.423 8.423 0 0 1 5.988 2.48zm-.264 5.984a5.686 5.686 0 0 0-1.674-4.046 5.709 5.709 0 0 0-4.05-1.68 5.706 5.706 0 0 0-4.046 1.68 5.69 5.69 0 0 0-1.678 4.046c0 1.586.64 3.008 1.678 4.048a5.678 5.678 0 0 0 4.046 1.676 5.68 5.68 0 0 0 4.05-1.676 5.698 5.698 0 0 0 1.646-3.462l.028-.586zm37.52-5.984a8.434 8.434 0 0 1 2.476 5.984l-.026 7.058c0 2.336-.95 4.466-2.482 5.994a8.458 8.458 0 0 1-5.988 2.476 8.442 8.442 0 0 1-5.82-2.324c-.064-.09-.09-.208.012-.332l1.612-1.614c.122-.086.244-.042.33.024a5.697 5.697 0 0 0 3.866 1.504 5.704 5.704 0 0 0 4.05-1.676 5.717 5.717 0 0 0 1.678-4.052v-.792a8.465 8.465 0 0 1-11.684-.278 8.462 8.462 0 0 1 0-11.972 8.42 8.42 0 0 1 5.988-2.48 8.43 8.43 0 0 1 5.988 2.48zm-.268 5.984h.004a5.69 5.69 0 0 0-1.678-4.046 5.706 5.706 0 0 0-4.046-1.68 5.708 5.708 0 0 0-4.048 1.68 5.688 5.688 0 0 0-1.676 4.046c0 1.586.638 3.008 1.676 4.048a5.68 5.68 0 0 0 4.048 1.676 5.678 5.678 0 0 0 4.046-1.676 5.692 5.692 0 0 0 1.65-3.462l.024-.586zm18.955-5.984a8.42 8.42 0 0 1 2.48 5.984 8.427 8.427 0 0 1-2.48 5.988 8.432 8.432 0 0 1-5.984 2.482 8.436 8.436 0 0 1-5.984-2.482 8.442 8.442 0 0 1-2.478-5.988c0-2.332.946-4.456 2.478-5.984a8.418 8.418 0 0 1 5.984-2.48 8.414 8.414 0 0 1 5.984 2.48zm-1.936 10.032a5.687 5.687 0 0 0 1.676-4.048 5.68 5.68 0 0 0-1.676-4.046 5.728 5.728 0 0 0-4.048-1.68 5.733 5.733 0 0 0-4.05 1.68 5.694 5.694 0 0 0-1.674 4.046c0 1.586.638 3.008 1.674 4.048a5.687 5.687 0 0 0 4.05 1.676 5.683 5.683 0 0 0 4.048-1.676zm-35.407-10.032a8.446 8.446 0 0 1 2.48 5.984c0 2.336-.95 4.458-2.48 5.988a8.442 8.442 0 0 1-5.988 2.482 8.436 8.436 0 0 1-5.984-2.482 8.445 8.445 0 0 1-2.483-5.988 8.44 8.44 0 0 1 2.483-5.984 8.418 8.418 0 0 1 5.984-2.48 8.423 8.423 0 0 1 5.988 2.48zm-1.938 10.032a5.711 5.711 0 0 0 1.676-4.048 5.733 5.733 0 0 0-5.726-5.726 5.731 5.731 0 0 0-4.048 1.68 5.694 5.694 0 0 0-1.674 4.046c0 1.586.638 3.008 1.674 4.048a5.686 5.686 0 0 0 4.048 1.676 5.687 5.687 0 0 0 4.05-1.676zm63.633-10.032a8.441 8.441 0 0 1 2.484 5.984 8.447 8.447 0 0 1-2.484 5.988 8.43 8.43 0 0 1-5.986 2.482 8.467 8.467 0 0 1-5.988-14.454 8.437 8.437 0 0 1 5.988-2.48 8.415 8.415 0 0 1 5.986 2.48zm-1.938 10.032a5.693 5.693 0 0 0 1.682-4.048 5.684 5.684 0 0 0-1.682-4.046 5.72 5.72 0 0 0-4.048-1.68 5.731 5.731 0 0 0-4.048 1.68 5.702 5.702 0 0 0-1.674 4.046 5.71 5.71 0 0 0 1.674 4.048 5.686 5.686 0 0 0 4.048 1.676 5.676 5.676 0 0 0 4.048-1.676z"/>
</svg>
