<svg xmlns="http://www.w3.org/2000/svg" width="32" height="32" viewBox="0 0 32 32">
  <path fill="#FFF" d="M32,16 C32,24.8379364 24.8379364,32 16,32 C7.16206357,32 1.42108547e-14,24.8379364 1.42108547e-14,16 C1.42108547e-14,7.16206357 7.16206357,0 16,0 C24.8379364,0 32,7.16206357 32,16 Z M16,7.80125 C18.671875,7.80125 18.988125,7.813125 20.03875,7.86 C21.015625,7.903125 21.5425,8.066875 21.894375,8.20375 C22.359375,8.38375 22.695,8.6025 23.0425,8.95 C23.394375,9.301875 23.60875,9.63375 23.7925,10.09875 C23.929375,10.450625 24.093125,10.98125 24.13625,11.954375 C24.183125,13.009375 24.195,13.325625 24.195,15.99375 C24.195,18.661875 24.183125,18.981875 24.13625,20.033125 C24.093125,21.01 23.929375,21.536875 23.7925,21.88875 C23.6125,22.35375 23.394375,22.689375 23.04625,23.036875 C22.694375,23.38875 22.3625,23.603125 21.898125,23.786875 C21.54625,23.92375 21.015,24.0875 20.0425,24.130625 C18.9875,24.1775 18.67125,24.189375 16.003125,24.189375 C13.335,24.189375 13.015,24.1775 11.96375,24.130625 C10.986875,24.0875 10.46,23.92375 10.108125,23.786875 C9.643125,23.606875 9.3075,23.38875 8.959375,23.040625 C8.6075,22.68875 8.393125,22.356875 8.209375,21.8925 C8.0725,21.540625 7.90875,21.009375 7.865625,20.036875 C7.81875,18.981875 7.806875,18.665625 7.806875,15.9975 C7.806875,13.329375 7.81875,13.009375 7.865625,11.958125 C7.90875,10.98125 8.0725,10.454375 8.209375,10.1025 C8.389375,9.6375 8.608125,9.301875 8.955625,8.95375 C9.3075,8.601875 9.639375,8.3875 10.104375,8.20375 C10.45625,8.066875 10.986875,7.903125 11.96,7.86 C13.010625,7.813125 13.3275,7.80125 15.999375,7.80125 L16,7.80125 Z M16,6.000625 C13.285,6.000625 12.945625,6.0125 11.87875,6.059375 C10.81625,6.10625 10.085625,6.278125 9.453125,6.524375 C8.793125,6.781875 8.234375,7.121875 7.68,7.680625 C7.12125,8.235625 6.78125,8.79375 6.52375,9.45 C6.2775,10.086875 6.105625,10.813125 6.05875,11.875625 C6.011875,12.94625 6,13.285625 6,16.000625 C6,18.715625 6.011875,19.055 6.05875,20.121875 C6.105625,21.184375 6.2775,21.915 6.52375,22.5475 C6.781875,23.2075 7.12125,23.76625 7.68,24.320625 C8.234375,24.875 8.793125,25.219375 9.449375,25.473125 C10.08625,25.719375 10.8125,25.89125 11.875,25.938125 C12.94125,25.985 13.28125,25.996875 15.99625,25.996875 C18.71125,25.996875 19.05125,25.985 20.1175,25.938125 C21.18,25.89125 21.910625,25.719375 22.543125,25.473125 C23.199375,25.219375 23.758125,24.875625 24.3125,24.320625 C24.866875,23.765625 25.21125,23.2075 25.465,22.55125 C25.71125,21.914375 25.883125,21.188125 25.93,20.125625 C25.976875,19.059375 25.98875,18.719375 25.98875,16.004375 C25.98875,13.289375 25.976875,12.95 25.93,11.883125 C25.883125,10.820625 25.71125,10.09 25.465,9.4575 C25.21875,8.793125 24.87875,8.235 24.320625,7.68 C23.76625,7.125625 23.2075,6.78125 22.55125,6.5275 C21.914375,6.28125 21.188125,6.109375 20.125625,6.0625 C19.055625,6.011875 18.715625,6 16.000625,6 L16,6.000625 Z M16,10.86375 C13.164375,10.86375 10.863125,13.164375 10.863125,16.000625 C10.863125,18.836875 13.16375,21.1375 16,21.1375 C18.83625,21.1375 21.136875,18.836875 21.136875,16.000625 C21.136875,13.165 18.83625,10.86375 16,10.86375 Z M16,19.3325 C14.16,19.3325 12.668125,17.840625 12.668125,16.000625 C12.668125,14.160625 14.16,12.66875 16,12.66875 C17.84,12.66875 19.331875,14.160625 19.331875,16.000625 C19.331875,17.840625 17.84,19.3325 16,19.3325 Z M22.53875,10.660625 C22.53875,9.998125 22.001875,9.46125 21.339375,9.46125 C20.676875,9.46125 20.14,9.998125 20.14,10.660625 C20.14,11.323125 20.676875,11.86 21.339375,11.86 C22.001875,11.86 22.53875,11.323125 22.53875,10.660625 Z"/>
</svg>
