<svg xmlns="http://www.w3.org/2000/svg" width="155" height="76" viewBox="0 0 155 76">
  <path fill="#FFF" fill-rule="evenodd" d="M28.2473152 75.7731248C15.8225312 75.7731248 4.8815712 68.2932048.3738592 56.7171888-.4338688 54.6433008.5924352 52.3076688 2.6663232 51.5002448 4.7399072 50.6919088 7.0761472 51.7182128 7.8835712 53.7927088 11.1768032 62.2499888 19.1704832 67.7137808 28.2473152 67.7137808 37.3247552 67.7137808 45.3184352 62.2499888 48.6116672 53.7933168 49.4187872 51.7194288 51.7544192 50.6919088 53.8289152 51.5008528 55.9031072 52.3079728 56.9291072 54.6439088 56.1213792 56.7177968 51.6136672 68.2935088 40.6720992 75.7731248 28.2473152 75.7731248M43.2478 26.825568C40.262824 26.825568 37.833864 29.254224 37.833864 32.238896 37.833864 35.224176 40.262824 37.652528 43.2478 37.652528 46.232776 37.652528 48.661736 35.224176 48.661736 32.238896 48.661736 29.254224 46.232776 26.825568 43.2478 26.825568M43.2478 19.145616C50.4678 19.145616 56.341384 25.0192 56.341384 32.238896 56.341384 39.458896 50.4678 45.33248 43.2478 45.33248 36.028104 45.33248 30.154216 39.458896 30.154216 32.238896 30.154216 25.0192 36.028104 19.145616 43.2478 19.145616zM13.1472096.304696C20.3450176.222312 26.2623776 5.888568 26.5879616 12.988792 26.6016416 13.287928 26.3614816 13.53812 26.0623456 13.53812L26.0623456 13.53812 18.9949536 13.53812C18.7243936 13.53812 18.5055136 13.32988 18.4775456 13.06084 18.2063776 10.467112 16.0236576 8.43396 13.3673056 8.401128 10.4686656 8.364952 8.0968576 10.809112 8.0968576 13.708056L8.0968576 13.708056 8.0968576 32.03044C8.0968576 34.870408 10.3832416 37.186584 13.2116576 37.234616 16.1239776 37.284168 18.5067296 34.838792 18.5067296 31.926472L18.5067296 31.926472 18.5067296 26.825048 13.7552096 26.825048C13.4648896 26.825048 13.2302016 26.590056 13.2302016 26.299736L13.2302016 26.299736 13.2302016 20.11212C13.2302016 19.822104 13.4648896 19.587112 13.7552096 19.587112L13.7552096 19.587112 26.3505376 19.587112C26.4955456 19.587112 26.6128896 19.70476 26.6128896 19.849464L26.6128896 19.849464 26.6128896 26.825048 26.6037696 26.825048 26.6037696 32.03044C26.6037696 39.408824 20.5654176 45.403096 13.1709216 45.331656 5.8478656 45.260824-.0001824 39.184168-.0001824 31.860808L-.0001824 31.860808-.0001824 13.774024C-.0001824 6.460088 5.8335776.388296 13.1472096.304696zM64.8837536 28.5532304C64.8837536 26.0099664 67.0804576 23.8138704 70.5481856 23.8138704 74.1320416 23.8138704 75.8654496 26.0099664 75.8654496 26.0099664L73.7848736 28.2060624C73.7848736 28.2060624 72.6284576 26.8189104 70.7798336 26.8189104 69.3923776 26.8189104 68.5831296 27.6284624 68.5831296 28.5532304 68.5831296 31.5585744 76.5594816 29.8245584 76.5594816 35.6045104 76.5594816 38.4943344 74.3627776 40.6904304 70.4326656 40.6904304 66.3861216 40.6904304 64.3061536 38.0316464 64.3061536 38.0316464L66.3861216 35.9513744C66.3861216 35.9513744 67.7735776 37.6853904 70.2010176 37.6853904 71.9353376 37.6853904 72.8601056 36.7606224 72.8601056 35.6045104 72.8601056 32.5991664 64.8837536 34.3328784 64.8837536 28.5532304M106.661197 28.206184L104.696141 33.523448 108.626253 33.523448 106.661197 28.206184zM103.539725 36.529096L102.152573 40.343688 98.4541088 40.343688 104.811661 24.160248 108.511037 24.160248 114.868285 40.343688 111.169213 40.343688 109.782061 36.529096 103.539725 36.529096zM125.643109 27.281416L122.059253 27.281416 122.059253 31.558392 125.643109 31.558392C126.915045 31.558392 127.838901 30.633624 127.838901 29.477512 127.838901 28.206184 126.915045 27.281416 125.643109 27.281416zM125.758629 24.160248C128.995317 24.160248 131.307541 26.518376 131.307541 29.477512 131.307541 32.3512761 129.323588 33.716727 128.643376 34.1004281L128.522324 34.1659789C128.455462 34.2005709 128.417717 34.217176 128.417717 34.217176L131.885141 40.343688 128.185765 40.343688 125.065509 34.67956 122.059253 34.67956 122.059253 40.343688 118.591525 40.343688 118.591525 24.160248 125.758629 24.160248zM84.42 24.16L84.42 30.631 90.788 30.631 90.788 24.16 94.255 24.16 94.255 40.337 90.788 40.337 90.788 33.75 84.42 33.75 84.42 40.337 80.967 40.337 80.967 24.16 84.42 24.16zM147.675 24.16L147.675 27.28 139.746 27.28 139.746 30.631 147.181 30.631 147.181 33.751 139.746 33.751 139.746 37.217 147.675 37.217 147.675 40.337 136.279 40.337 136.279 24.16 147.675 24.16zM152.346712 23.9610672C153.345048 23.9610672 154.105656 24.7377872 154.105656 25.7124112 154.105656 26.7028432 153.32924 27.4634512 152.346712 27.4634512 151.372392 27.4634512 150.587768 26.7107472 150.587768 25.7203152 150.587768 24.7453872 151.364184 23.9610672 152.346712 23.9610672zM152.346712 24.2465232C151.50676 24.2465232 150.904536 24.8566512 150.904536 25.7203152 150.904536 26.5918832 151.53868 27.1779952 152.346712 27.1779952 153.162952 27.1779952 153.788888 26.5760752 153.788888 25.7124112 153.788888 24.8487472 153.186664 24.2465232 152.346712 24.2465232zM152.354616 24.8247312C152.758632 24.8247312 153.020376 24.9913232 153.020376 25.3479152L153.020376 25.3558192C153.020376 25.6172592 152.869592 25.7598352 152.663784 25.8230672L153.123432 26.5602672 152.72732 26.5602672 152.307192 25.8866032 152.124792 25.8866032 152.124792 26.5602672 151.744792 26.5602672 151.744792 24.8247312 152.354616 24.8247312zM152.346712 25.1180912L152.124792 25.1180912 152.124792 25.6251632 152.346712 25.6251632C152.544616 25.6251632 152.647976 25.5379152 152.647976 25.3716272L152.647976 25.3637232C152.647976 25.1816272 152.536712 25.1180912 152.346712 25.1180912z"/>
</svg>
